<?xml version="1.0" encoding="utf-8"?>
<!-- Generator: Adobe Illustrator 20.0.0, SVG Export Plug-In . SVG Version: 6.00 Build 0)  -->
<svg version="1.1" id="Layer_1" xmlns="http://www.w3.org/2000/svg" xmlns:xlink="http://www.w3.org/1999/xlink" x="0px" y="0px"
	 viewBox="0 0 187.1 99.7" style="enable-background:new 0 0 187.1 99.7;" xml:space="preserve">
<style type="text/css">
	.cvs-st0{fill-rule:evenodd;clip-rule:evenodd;fill:#BC5044;}
</style>
<g>
	<path class="cvs-st0" d="M23.7,78.8c-1.3-2-3.3-2.9-5.7-2.9l-3.1,0.8L12.3,79v-2.6H6.2v23.3H13v-7.6c1.2,1.4,2.6,2.1,4.4,2.1
		c2.3,0,4.1-0.7,5.6-2.1c1.8-1.6,2.6-3.9,2.6-7.1C25.6,82.5,24.9,80.2,23.7,78.8L23.7,78.8z M18.7,85.2c0,2.6-0.9,3.9-3,3.9
		C14,89,13,87.6,13,85l0.7-2.9c0.5-0.7,1.2-1.1,1.9-1.1C17.7,81.1,18.7,82.5,18.7,85.2L18.7,85.2z"/>
	<path class="cvs-st0" d="M47.2,83.4c0-5-2.2-7.5-6.7-7.5c-2.1,0-3.8,0.9-5.2,2.7V70h-7v23.8h7V85c0-2.3,0.8-3.5,2.5-3.5
		c1.8,0,2.6,1.1,2.6,3.1v9.2h6.8V83.4L47.2,83.4z"/>
	<path class="cvs-st0" d="M67.6,77.9c-1.2-1.4-3.7-2.1-7.5-2.1c-6.2,0-9.4,1.9-9.4,5.8h6.6c0.2-1.1,0.8-1.6,2.4-1.6
		c1.5,0,2.1,0.6,2.1,1.6L60,82.9l-4.1,0.7c-4.3,0.7-6.3,2.5-6.3,5.5c0,1.6,0.7,3,2,3.9c1.1,0.8,2.5,1.2,4.4,1.2
		c2.6,0,4.8-0.7,6.6-2.2l0.2,1.8h7.1v-0.2l-1.1-2.4v-7.9C68.7,80.6,68.3,78.8,67.6,77.9L67.6,77.9z M61.8,86.2
		c0.3,2.9-0.7,4.2-2.9,4.2c-1.5,0-2.3-0.4-2.3-1.3c0-1,0.6-1.6,1.8-2L61.8,86.2L61.8,86.2z"/>
	<path class="cvs-st0" d="M72.7,76.4v17.4h6.7v-6c0-3.4,1.3-5.1,4.2-5.1l1.6,0.2V76l-0.8-0.1c-2.6,0-4.5,1.3-5.5,4.1h-0.2v-3.6H72.7
		L72.7,76.4z"/>
	<path class="cvs-st0" d="M87.7,93.8h6.9v-8.6c0-2.5,0.8-3.7,2.3-3.7c1,0,1.5,0.2,1.8,0.7l0.4,2.9v8.8h7v-8.6c0-2.5,0.8-3.7,2.5-3.7
		l1.7,0.7l0.4,2.9v8.8h7V83.5c0-5.1-2.1-7.6-6.7-7.6c-2.5,0-4.4,1.1-5.9,3.3c-1-2.2-2.9-3.3-5.7-3.3c-1.2,0-2.3,0.4-3.4,1.1L93.9,79
		v-2.6h-6.2V93.8L87.7,93.8z"/>
	<path class="cvs-st0" d="M138,77.9c-1.2-1.4-3.7-2.1-7.4-2.1c-6.4,0-9.6,1.9-9.6,5.8h6.7c0.2-1.1,0.8-1.6,2.3-1.6
		c1.6,0,2.4,0.6,2.4,1.6c0,0.7-0.7,1.1-2,1.2l-4.2,0.7c-4.3,0.7-6.3,2.5-6.3,5.5c0,1.6,0.7,3,2.1,3.9c1.1,0.8,2.5,1.2,4.3,1.2
		c2.5,0,4.6-0.7,6.4-2.2l0.4,1.8h7v-0.2c-0.6-0.6-0.8-1.4-0.8-2.4v-7.9C139.2,80.6,138.8,78.8,138,77.9L138,77.9z M132.4,86.2
		c0.1,2.9-0.8,4.2-3,4.2c-1.5,0-2.2-0.4-2.2-1.3c0-1,0.6-1.6,1.8-2L132.4,86.2L132.4,86.2z"/>
	<path class="cvs-st0" d="M158.3,77.5c-1.5-1.1-3.7-1.6-6.2-1.6c-2.9,0-5.3,0.8-7,2.5c-1.8,1.6-2.8,4-2.8,6.9c0,2.9,1,5,2.8,6.7
		c1.7,1.6,4.1,2.2,7,2.2c5.8,0,9-2.3,9.7-7.1h-7c-0.2,1.6-1.1,2.5-2.7,2.5c-2,0-2.9-1.3-2.9-4.2c0-3.2,0.9-4.8,2.9-4.8
		c0.8,0,1.3,0.3,1.7,0.7l0.8,1.7h7C161.5,80.6,160.4,78.8,158.3,77.5L158.3,77.5z"/>
	<path class="cvs-st0" d="M170.4,76.4h-7l5.7,15.9v1.9c-0.2,0.4-1,0.6-2.1,0.6l-1.4-0.2v4.9l3,0.2c2.9,0,4.9-0.6,6-1.6l2.6-5.5l5.6-16.2
		h-6.6l-3,10.7L170.4,76.4L170.4,76.4z"/>
	<path class="cvs-st0" d="M43.8,25.9h19.7c-0.8-8.2-3.9-14.5-9.3-19C48.7,2.4,41.2,0,31.6,0c-9,0-16.4,3-22.3,9C3.1,15.1,0,23.2,0,33.3
		c0,10.3,3,18.5,8.9,24.6c6.2,6,14.4,9,24.8,9c8.4,0,15.4-2.4,20.8-7c5.5-4.8,8.6-11.3,9.6-19.3H43.9c-1,7.2-4.4,10.8-10.5,10.8
		c-4.9,0-8.4-1.7-10.3-5.3c-1.6-2.7-2.4-6.7-2.4-12c0-6.1,1.1-10.6,3.2-13.7c2.1-3.1,4.8-4.8,8.5-4.8c3.3,0,5.9,0.9,8,2.7
		C42.3,20,43.4,22.6,43.8,25.9L43.8,25.9z"/>
	<polygon class="cvs-st0" points="107.8,1.6 96.3,43.9 85.2,1.6 64.2,1.6 85.8,65.2 106.8,65.2 128.8,1.6 107.8,1.6 	"/>
	<path class="cvs-st0" d="M138.5,5.1c-5.3,3.5-7.8,8.6-7.8,15.2c0,5.3,1.9,9.7,5.6,13c2.9,2.4,7.1,4.4,12.6,6.1l12.6,3.3
		c3.7,1.2,5.6,2.9,5.6,4.9c0,1.5-0.8,2.5-2.3,3.4l-6.3,1.2c-2.2,0-4.1-0.5-5.9-1.6c-1.7-1.1-2.9-2.7-3.3-5h-20c0.2,6,2.9,11.1,8,15
		c5.3,4.3,12,6.3,20.1,6.3c9,0,16.1-1.8,21.4-5.5c5.6-3.9,8.3-9.3,8.3-16.4c0-5.3-1.9-9.4-5.7-12.6c-2.7-2.4-6.8-4.3-12.4-5.9
		l-12.6-3.3c-3.8-1.2-5.7-2.9-5.7-4.9c0-2.5,2.2-3.7,6.7-3.7l5.2,1.2c1.8,1,2.9,2.3,3.2,4.4h19.7c-0.8-6.2-3.3-10.9-7.6-14.4
		C173,2,166.6,0,158.3,0C150,0,143.5,1.6,138.5,5.1L138.5,5.1z"/>
</g>
</svg>
