<?xml version="1.0" encoding="utf-8"?>
<!-- Generator: Adobe Illustrator 20.0.0, SVG Export Plug-In . SVG Version: 6.00 Build 0)  -->
<svg version="1.1" id="Layer_1" xmlns="http://www.w3.org/2000/svg" xmlns:xlink="http://www.w3.org/1999/xlink" x="0px" y="0px"
	 viewBox="0 0 125.1 107.7" style="enable-background:new 0 0 125.1 107.7;" xml:space="preserve">
<style type="text/css">
	.riteaid-st0{fill:#FFFFFF;stroke:#FFFFFF;stroke-width:7.0457;}
	.riteaid-st1{fill:#004F99;}
	.riteaid-st2{fill:#EF3E42;}
	.riteaid-st3{fill:#FFFFFF;}
</style>
<g>
	<path class="riteaid-st0" d="M121.5,44.3L121.5,44.3l0-34.6c0-2.9-2.4-6.1-6.3-6.1H10.3c-4.4,0-6.8,2.2-6.8,6.3v35.6"/>
	<path class="riteaid-st0" d="M3.5,45.4v29.9c0.2,9.9,11.9,12.8,11.9,12.8L62.3,104l47.1-15.8c0,0,12.1-3,12.1-13l0-30.8"/>
	<path class="riteaid-st1" d="M121.5,43V9.6c0-2.9-2.4-6.1-6.3-6.1H10.3c-4.4,0-6.8,2.2-6.8,6.3v21.9c0,0.1,0,11.2,0,11.2L121.5,43L121.5,43
		L121.5,43z"/>
	<path class="riteaid-st2" d="M3.5,46.8c0,0,0,12.3,0,12.3v16.3c0.2,9.9,11.9,12.8,11.9,12.8L62.3,104l47.1-15.8c0,0,12.1-3,12.1-13V46.8
		l0,0L3.5,46.8L3.5,46.8L3.5,46.8z"/>
	<path class="riteaid-st3" d="M25.8,85.4c0,0,11.5-31.3,11.5-31.3h7.4c0,0,12.3,31.3,12.2,31.3h-7.4l-1.9-5H34.9l-1.8,5H25.8L25.8,85.4z
		 M45.3,74.3l-4-10.5l-0.1-0.1l-3.8,10.7H45.3L45.3,74.3z"/>
	<polygon class="riteaid-st3" points="60,54.2 67.4,54.2 67.4,85.3 60,85.3 60,54.2 	"/>
	<path class="riteaid-st3" d="M72.7,54.2H88c4.6,0,11.9,3.8,11.9,14.9c0,8.7-3.8,16.2-14.5,16.2H72.7V54.2L72.7,54.2z M79.7,79.7h4.7
		c7,0,8.7-4.7,8.6-9.8c-0.1-6.1-1.6-9.8-8.2-9.8h-5.1V79.7L79.7,79.7z"/>
	<polygon class="riteaid-st3" points="48.9,8.6 56.6,8.6 56.6,37.5 48.9,37.5 48.9,8.6 	"/>
	<polygon class="riteaid-st3" points="58.8,8.6 81.1,8.6 81.1,15.1 73.8,15.1 73.8,37.5 66.3,37.5 66.3,15.1 58.8,15.1 58.8,8.6 	"/>
	<polygon class="riteaid-st3" points="103.6,20.1 103.6,26.2 90.8,26.2 90.8,31.4 105.9,31.4 105.9,37.5 83.8,37.5 83.8,8.6 105.9,8.6
		105.9,15.1 90.8,15.1 90.8,20.1 103.6,20.1 	"/>
	<path class="riteaid-st3" d="M20.5,8.7h15.2c7.4,0,10.4,4.2,10.4,9.9c0,3.3-2,7.2-6.2,8.8c0,0,6.7,10.3,6.5,10.2h-9.2
		c0,0-11.2-15.2-11.2-15.2c0.1,0,8.2,0,8.3,0c0.9,0,4.3-0.2,4.3-3.7c0-3.6-3-3.9-4.3-3.9h-6.8v22.8h-7V8.7L20.5,8.7z"/>
	<path class="riteaid-st1" d="M107,96.9c0-2.1,1.7-3.6,3.7-3.6c2,0,3.7,1.5,3.7,3.6c0,2.1-1.7,3.6-3.7,3.6C108.7,100.6,107,99,107,96.9z
		 M110.7,100c1.6,0,2.9-1.3,2.9-3c0-1.7-1.3-3-2.9-3c-1.7,0-3,1.3-3,3C107.7,98.7,109,100,110.7,100z M109.9,99h-0.6v-4.2h1.6
		c1,0,1.5,0.4,1.5,1.2c0,0.7-0.5,1.1-1.1,1.2l1.2,1.8h-0.7l-1.1-1.8h-0.7V99z M110.7,96.7c0.5,0,1,0,1-0.7c0-0.5-0.5-0.6-0.9-0.6
		h-0.9v1.3H110.7z"/>
</g>
</svg>
